<svg xmlns="http://www.w3.org/2000/svg" viewBox="0 0 800 460" width="800" height="460" style="background:#0f172a; border-radius:16px; font-family:system-ui,-apple-system,BlinkMacSystemFont,'Segoe UI',Roboto,Helvetica,Arial,sans-serif;">
  <defs>
    <linearGradient id="bgGrad" x1="0%" y1="0%" x2="100%" y2="100%">
      <stop offset="0%" stop-color="#1e293b"/>
      <stop offset="100%" stop-color="#0f172a"/>
    </linearGradient>
    <linearGradient id="primaryGrad" x1="0%" y1="0%" x2="100%" y2="0%">
      <stop offset="0%" stop-color="#3b82f6"/>
      <stop offset="100%" stop-color="#2563eb"/>
    </linearGradient>
    <linearGradient id="accentGrad" x1="0%" y1="0%" x2="100%" y2="0%">
      <stop offset="0%" stop-color="#10b981"/>
      <stop offset="100%" stop-color="#059669"/>
    </linearGradient>
    <linearGradient id="amberGrad" x1="0%" y1="0%" x2="100%" y2="0%">
      <stop offset="0%" stop-color="#f59e0b"/>
      <stop offset="100%" stop-color="#d97706"/>
    </linearGradient>
    <linearGradient id="roseGrad" x1="0%" y1="0%" x2="100%" y2="0%">
      <stop offset="0%" stop-color="#f43f5e"/>
      <stop offset="100%" stop-color="#e11d48"/>
    </linearGradient>
    <linearGradient id="purpleGrad" x1="0%" y1="0%" x2="100%" y2="0%">
      <stop offset="0%" stop-color="#a855f7"/>
      <stop offset="100%" stop-color="#7c3aed"/>
    </linearGradient>
    <linearGradient id="cyanGrad" x1="0%" y1="0%" x2="100%" y2="0%">
      <stop offset="0%" stop-color="#06b6d4"/>
      <stop offset="100%" stop-color="#0891b2"/>
    </linearGradient>
    <filter id="cardGlow" x="-10%" y="-10%" width="120%" height="120%">
      <feDropShadow dx="0" dy="4" stdDeviation="6" flood-color="#000000" flood-opacity="0.4"/>
    </filter>
  </defs>

  <!-- Background -->
  <rect width="800" height="460" rx="16" fill="url(#bgGrad)"/>
  <rect x="1.5" y="1.5" width="797" height="457" rx="14.5" fill="none" stroke="#334155" stroke-width="1.5"/>

  <!-- Top Header Bar -->
  <rect x="20" y="18" width="760" height="54" rx="12" fill="#1e293b" stroke="#334155" stroke-width="1"/>
  <rect x="34" y="30" width="8" height="30" rx="4" fill="url(#primaryGrad)"/>
  <text x="52" y="45" font-size="18" font-weight="800" fill="#f8fafc" letter-spacing="0.5">基準量、比較量與怎樣解題線段模型 (Base &amp; Compared Quantity)</text>
  <text x="52" y="61" font-size="12" font-weight="500" fill="#94a3b8">108 課綱 r-III-2：基準量當作 1、折扣加成、母子和與母子差問題</text>

  <!-- Badge on top right -->
  <rect x="630" y="29" width="136" height="30" rx="8" fill="#3b82f6" fill-opacity="0.2" stroke="#3b82f6" stroke-width="1"/>
  <text x="698" y="49" font-size="12" font-weight="700" fill="#60a5fa" text-anchor="middle">基準量＝1倍數</text>

  <!-- Main Visual Body Content -->
  <g transform="translate(20, 86)">
    
      <!-- Left: Line Model of Base vs Compared -->
      <rect x="0" y="0" width="370" height="326" rx="12" fill="#1e293b" stroke="#334155"/>
      <rect x="0" y="0" width="370" height="40" rx="12" fill="#334155" fill-opacity="0.5"/>
      <text x="20" y="26" font-size="15" font-weight="700" fill="#f8fafc">📏 基準量與比較量黃金線段圖</text>

      <!-- Base Quantity Bar (1) -->
      <rect x="30" y="70" width="140" height="36" rx="6" fill="#2563eb"/>
      <text x="100" y="93" font-size="13" font-weight="800" fill="#ffffff" text-anchor="middle">基準量 (當作 1)</text>
      <text x="210" y="93" font-size="12" fill="#94a3b8">被比較的標準 (如成本、原價)</text>

      <!-- Compared Quantity Bar (1.5) -->
      <rect x="30" y="125" width="210" height="36" rx="6" fill="#10b981"/>
      <text x="135" y="148" font-size="13" font-weight="800" fill="#ffffff" text-anchor="middle">比較量 (1.5 倍)</text>
      <text x="265" y="148" font-size="12" fill="#94a3b8">與基準量對比</text>

      <!-- Formula block -->
      <rect x="20" y="180" width="330" height="130" rx="8" fill="#0f172a" stroke="#f59e0b" stroke-width="1.5"/>
      <text x="35" y="205" font-size="13" font-weight="800" fill="#fbbf24">📐 核心算式三大變形：</text>
      <text x="35" y="230" font-size="13" font-weight="700" fill="#ffffff">① 比值 (倍數) ＝ 比較量 ÷ 基準量</text>
      <text x="35" y="255" font-size="13" font-weight="700" fill="#60a5fa">② 比較量 ＝ 基準量 × 比值</text>
      <text x="35" y="280" font-size="13" font-weight="700" fill="#34d399">③ 基準量 ＝ 比較量 ÷ 比值</text>
      <text x="35" y="300" font-size="11" fill="#cbd5e1">口訣：「比」後面接的對象，就是「基準量」！</text>

      <!-- Right: Mother-Child Sum/Difference -->
      <rect x="390" y="0" width="370" height="326" rx="12" fill="#1e293b" stroke="#334155"/>
      <rect x="390" y="0" width="370" height="40" rx="12" fill="#334155" fill-opacity="0.5"/>
      <text x="410" y="26" font-size="15" font-weight="700" fill="#f8fafc">💡 母子和與母子差生活實戰</text>

      <rect x="405" y="55" width="340" height="80" rx="8" fill="#0f172a" stroke="#3b82f6"/>
      <text x="420" y="78" font-size="13" font-weight="800" fill="#60a5fa">加成利潤 (母子和問題)：</text>
      <text x="420" y="100" font-size="12" fill="#cbd5e1">成本加二成五作為售價 ➔ 售價 ＝ 成本 × (1 ＋ 0.25)</text>
      <text x="420" y="122" font-size="12" fill="#a7f3d0">母子和 ＝ 基準量 × (1 ＋ 比值)</text>

      <rect x="405" y="145" width="340" height="80" rx="8" fill="#0f172a" stroke="#f59e0b"/>
      <text x="420" y="168" font-size="13" font-weight="800" fill="#fbbf24">打折促銷 (母子差問題)：</text>
      <text x="420" y="190" font-size="12" fill="#cbd5e1">全館定價打八折 ➔ 售價 ＝ 定價 × 0.8</text>
      <text x="420" y="212" font-size="12" fill="#fde68a">折價省下的錢 ＝ 定價 × (1 － 0.8) ＝ 定價 × 0.2</text>

      <rect x="405" y="235" width="340" height="75" rx="8" fill="#0f172a" stroke="#a855f7"/>
      <text x="420" y="258" font-size="13" font-weight="800" fill="#c084fc">雞兔同籠特殊題型：</text>
      <text x="420" y="280" font-size="12" fill="#cbd5e1">「假設法」神技：若全部都是雞(2隻腳)，</text>
      <text x="420" y="298" font-size="12" fill="#cbd5e1">少算的腳數 ÷ 2 ＝ 兔子隻數！</text>
    
  </g>

  <!-- Bottom Watermark &amp; Status -->
  <rect x="20" y="424" width="760" height="24" rx="6" fill="#1e293b" fill-opacity="0.6"/>
  <text x="32" y="440" font-size="11" font-weight="600" fill="#64748b">108 課綱六年級專家精編・全方位觀念圖解</text>
  <text x="768" y="440" font-size="11" font-weight="600" fill="#38bdf8" text-anchor="end">Sixth Curriculum Design System</text>
</svg>